<svg width="40" height="40" viewBox="0 0 40 40" fill="none" xmlns="http://www.w3.org/2000/svg">
<path d="M18.9355 38.9607C18.9191 39.3182 19.1957 39.6225 19.5536 39.6272C22.6763 39.6683 25.7679 38.9707 28.5746 37.5872C31.5753 36.1082 34.1526 33.8935 36.0664 31.1496C37.9802 28.4057 39.1681 25.2219 39.5194 21.895C39.8479 18.7832 39.4345 15.6409 38.3171 12.7247C38.189 12.3905 37.8079 12.236 37.4781 12.3749C37.1482 12.5139 36.9946 12.8936 37.1219 13.2281C38.1548 15.9424 38.536 18.8647 38.2304 21.7589C37.9021 24.8682 36.7919 27.8437 35.0033 30.4081C33.2147 32.9725 30.806 35.0424 28.0016 36.4246C25.3912 37.7113 22.5171 38.3633 19.613 38.3317C19.2551 38.3278 18.9519 38.6031 18.9355 38.9607Z" fill="url(#paint0_linear_3546_2995)"/>
<path d="M21.7908 31.2615C18.7549 31.2615 15.8433 30.0555 13.6965 27.9087C11.5498 25.762 10.3437 22.8504 10.3438 19.8144C10.3438 16.7785 11.5498 13.8669 13.6965 11.7201C15.8433 9.5734 18.7549 8.36737 21.7908 8.36737V12.2021C19.7719 12.2021 17.8356 13.0041 16.408 14.4317C14.9804 15.8593 14.1784 17.7955 14.1784 19.8144C14.1784 21.8334 14.9804 23.7696 16.408 25.1972C17.8356 26.6248 19.7719 27.4268 21.7908 27.4268L21.7908 31.2615Z" fill="#044395"/>
<path d="M19.1595 34.1061C19.1417 34.4948 19.4424 34.826 19.8315 34.8256C21.9287 34.8234 24.005 34.3817 25.9254 33.526C28.0606 32.5745 29.944 31.1376 31.4257 29.3296C32.9074 27.5217 33.9464 25.3926 34.4599 23.1122C34.9734 20.8317 34.9472 18.4628 34.3835 16.1943C33.8197 13.9257 32.7339 11.8202 31.2126 10.0454C29.6912 8.27064 27.7765 6.87569 25.6208 5.97169C23.4651 5.06768 21.1281 4.67962 18.7959 4.83842C16.6983 4.98124 14.6568 5.56288 12.8026 6.54271C12.4586 6.72448 12.3479 7.15797 12.5456 7.49306C12.7433 7.82814 13.1745 7.93776 13.5194 7.75766C15.184 6.88838 17.013 6.372 18.8916 6.24409C21.0049 6.1002 23.1226 6.45184 25.0759 7.27099C27.0293 8.09014 28.7643 9.35416 30.1428 10.9624C31.5214 12.5705 32.5053 14.4785 33.0161 16.5341C33.527 18.5897 33.5507 20.7363 33.0854 22.8027C32.6201 24.8691 31.6786 26.7983 30.336 28.4366C28.9934 30.0748 27.2867 31.3769 25.3519 32.239C23.632 33.0055 21.774 33.4054 19.8961 33.4165C19.5071 33.4188 19.1774 33.7175 19.1595 34.1061Z" fill="#044395"/>
<path d="M19.0491 36.4994C19.0311 36.8913 19.3343 37.2251 19.7266 37.2271C23.4945 37.2463 27.1743 36.0423 30.2078 33.7858C33.4315 31.3877 35.7268 27.9486 36.7044 24.0515C37.6821 20.1544 37.2819 16.0391 35.5718 12.4034C33.9627 8.98225 31.2869 6.18381 27.9561 4.42225C27.6093 4.23883 27.1844 4.38999 27.0153 4.74399C26.8462 5.09799 26.9969 5.52066 27.3431 5.70534C30.3783 7.3247 32.8166 9.88363 34.2862 13.0081C35.8567 16.3472 36.2242 20.1267 35.3264 23.7058C34.4285 27.285 32.3205 30.4435 29.3598 32.6458C26.5894 34.7066 23.232 35.8116 19.7918 35.8066C19.3995 35.806 19.0671 36.1075 19.0491 36.4994Z" fill="#05F1DB"/>
<defs>
<linearGradient id="paint0_linear_3546_2995" x1="19.8145" y1="0" x2="19.8145" y2="39.6289" gradientUnits="userSpaceOnUse">
<stop offset="0.447321" stop-color="#05F1DB"/>
<stop offset="1" stop-color="#056CF2"/>
</linearGradient>
</defs>
</svg>
