<svg width="111" height="43" viewBox="0 0 111 43" fill="none" xmlns="http://www.w3.org/2000/svg">
<path d="M94.7961 38.5081C94.7833 38.788 94.9999 39.0263 95.2801 39.03C97.7254 39.0622 100.146 38.5159 102.344 37.4326C104.694 36.2745 106.712 34.5403 108.21 32.3916C109.709 30.243 110.639 27.75 110.914 25.1449C111.172 22.7081 110.848 20.2476 109.973 17.964C109.873 17.7023 109.574 17.5814 109.316 17.6902C109.058 17.799 108.937 18.0963 109.037 18.3582C109.846 20.4837 110.144 22.772 109.905 25.0383C109.648 27.473 108.779 29.803 107.378 31.811C105.977 33.8191 104.091 35.4398 101.895 36.5222C99.8512 37.5298 97.6007 38.0403 95.3267 38.0155C95.0464 38.0125 94.809 38.2281 94.7961 38.5081Z" fill="url(#paint0_linear_3524_2658)"/>
<path d="M97.032 32.4793C94.6547 32.4793 92.3747 31.5349 90.6937 29.8539C89.0127 28.1729 88.0684 25.893 88.0684 23.5157C88.0684 21.1384 89.0127 18.8585 90.6937 17.1775C92.3747 15.4965 94.6547 14.5521 97.032 14.5521V17.5548C95.451 17.5548 93.9349 18.1828 92.817 19.3007C91.6991 20.4186 91.0711 21.9348 91.0711 23.5157C91.0711 25.0966 91.6991 26.6128 92.817 27.7306C93.9349 28.8485 95.451 29.4765 97.032 29.4765V32.4793Z" fill="#044395"/>
<path d="M94.971 34.7067C94.957 35.0111 95.1925 35.2705 95.4972 35.2701C97.1394 35.2684 98.7652 34.9225 100.269 34.2525C101.941 33.5074 103.416 32.3822 104.576 30.9665C105.736 29.5508 106.55 27.8837 106.952 26.0979C107.354 24.3122 107.334 22.4573 106.892 20.6809C106.451 18.9045 105.6 17.2558 104.409 15.866C103.218 14.4763 101.718 13.384 100.03 12.6761C98.3425 11.9682 96.5125 11.6644 94.6863 11.7887C93.0438 11.9006 91.4452 12.356 89.9932 13.1233C89.7238 13.2656 89.6372 13.605 89.792 13.8674C89.9468 14.1298 90.2844 14.2156 90.5545 14.0746C91.8579 13.3939 93.2901 12.9896 94.7612 12.8894C96.416 12.7768 98.0742 13.0521 99.6038 13.6935C101.133 14.335 102.492 15.3248 103.571 16.5841C104.651 17.8433 105.421 19.3373 105.821 20.947C106.221 22.5566 106.24 24.2375 105.876 25.8556C105.511 27.4737 104.774 28.9844 103.723 30.2672C102.671 31.55 101.335 32.5696 99.8199 33.2447C98.4731 33.8449 97.0183 34.158 95.5478 34.1667C95.2431 34.1685 94.985 34.4024 94.971 34.7067Z" fill="#044395"/>
<path d="M94.8848 36.5808C94.8707 36.8877 95.1082 37.1491 95.4154 37.1506C98.3658 37.1657 101.247 36.2228 103.623 34.4559C106.147 32.5781 107.944 29.8851 108.71 26.8335C109.475 23.7819 109.162 20.5594 107.823 17.7124C106.563 15.0335 104.468 12.8422 101.859 11.4628C101.588 11.3192 101.255 11.4376 101.123 11.7148C100.99 11.992 101.108 12.323 101.379 12.4676C103.756 13.7356 105.665 15.7394 106.816 18.1859C108.046 20.8006 108.334 23.7602 107.631 26.5628C106.928 29.3654 105.277 31.8387 102.959 33.5633C100.789 35.177 98.1602 36.0422 95.4664 36.0383C95.1592 36.0378 94.8989 36.2739 94.8848 36.5808Z" fill="#05F1DB"/>
<path d="M5.36604 11.2677V31H2.12938V11.2677H5.36604ZM17.5084 15.1006C18.7387 15.1006 19.8365 15.3561 20.8018 15.8672C21.7861 16.3782 22.5527 17.1354 23.1016 18.1385C23.6505 19.1417 23.9249 20.3531 23.9249 21.7727V31H20.7167V22.2553C20.7167 20.8547 20.3665 19.7853 19.6662 19.0471C18.9658 18.29 18.01 17.9114 16.7986 17.9114C15.5872 17.9114 14.6219 18.29 13.9026 19.0471C13.2023 19.7853 12.8522 20.8547 12.8522 22.2553V31H9.61549V15.3561H12.8522V17.1448C13.3821 16.5013 14.0541 15.9997 14.868 15.6401C15.7008 15.2804 16.5809 15.1006 17.5084 15.1006ZM33.7319 31.2555C32.5015 31.2555 31.3943 31.0379 30.41 30.6025C29.4447 30.1482 28.6781 29.5426 28.1103 28.7854C27.5425 28.0094 27.2396 27.1482 27.2018 26.2018H30.552C30.6088 26.8643 30.9211 27.4226 31.4889 27.8769C32.0757 28.3122 32.8044 28.5299 33.6751 28.5299C34.5836 28.5299 35.2839 28.3596 35.7761 28.0189C36.2871 27.6592 36.5426 27.205 36.5426 26.6561C36.5426 26.0693 36.2587 25.634 35.6909 25.35C35.142 25.0661 34.2618 24.7538 33.0505 24.4131C31.8769 24.0913 30.9211 23.779 30.1829 23.4762C29.4447 23.1733 28.8012 22.7096 28.2522 22.085C27.7223 21.4604 27.4573 20.637 27.4573 19.6149C27.4573 18.7821 27.7033 18.025 28.1955 17.3436C28.6876 16.6432 29.3879 16.0943 30.2965 15.6968C31.2239 15.2994 32.2839 15.1006 33.4763 15.1006C35.2555 15.1006 36.6846 15.5549 37.7635 16.4634C38.8613 17.353 39.4481 18.5739 39.5238 20.126H36.2871C36.2303 19.4256 35.9464 18.8673 35.4354 18.4508C34.9243 18.0344 34.2334 17.8262 33.3628 17.8262C32.511 17.8262 31.858 17.9871 31.4037 18.3089C30.9495 18.6307 30.7223 19.0565 30.7223 19.5865C30.7223 20.0029 30.8738 20.3531 31.1766 20.637C31.4794 20.9209 31.8485 21.1481 32.2839 21.3184C32.7192 21.4698 33.3628 21.6686 34.2145 21.9146C35.3502 22.2175 36.2777 22.5298 36.9969 22.8516C37.7351 23.1544 38.3692 23.6087 38.8992 24.2144C39.4291 24.8201 39.7036 25.6245 39.7225 26.6277C39.7225 27.5173 39.4765 28.3122 38.9843 29.0126C38.4922 29.7129 37.7919 30.2618 36.8833 30.6593C35.9937 31.0568 34.9432 31.2555 33.7319 31.2555ZM42.1409 23.1071C42.1409 21.5361 42.4627 20.1449 43.1062 18.9335C43.7687 17.7221 44.6583 16.7852 45.7751 16.1227C46.9107 15.4413 48.16 15.1006 49.5228 15.1006C50.7531 15.1006 51.8225 15.3467 52.731 15.8388C53.6585 16.312 54.3967 16.9082 54.9456 17.6275V15.3561H58.2107V31H54.9456V28.6719C54.3967 29.4101 53.649 30.0252 52.7027 30.5173C51.7563 31.0095 50.6774 31.2555 49.466 31.2555C48.1221 31.2555 46.8918 30.9148 45.7751 30.2334C44.6583 29.5331 43.7687 28.5678 43.1062 27.3375C42.4627 26.0882 42.1409 24.6781 42.1409 23.1071ZM54.9456 23.1639C54.9456 22.085 54.7185 21.1481 54.2642 20.3531C53.8289 19.5581 53.2516 18.9524 52.5323 18.536C51.813 18.1196 51.037 17.9114 50.2042 17.9114C49.3714 17.9114 48.5953 18.1196 47.8761 18.536C47.1568 18.9335 46.57 19.5297 46.1158 20.3247C45.6804 21.1007 45.4628 22.0282 45.4628 23.1071C45.4628 24.186 45.6804 25.1324 46.1158 25.9463C46.57 26.7602 47.1568 27.3848 47.8761 27.8201C48.6142 28.2365 49.3903 28.4447 50.2042 28.4447C51.037 28.4447 51.813 28.2365 52.5323 27.8201C53.2516 27.4037 53.8289 26.798 54.2642 26.003C54.7185 25.1892 54.9456 24.2428 54.9456 23.1639ZM70.3548 15.1006C71.5851 15.1006 72.6829 15.3561 73.6482 15.8672C74.6325 16.3782 75.3991 17.1354 75.948 18.1385C76.4969 19.1417 76.7713 20.3531 76.7713 21.7727V31H73.5631V22.2553C73.5631 20.8547 73.2129 19.7853 72.5126 19.0471C71.8122 18.29 70.8564 17.9114 69.645 17.9114C68.4336 17.9114 67.4683 18.29 66.749 19.0471C66.0487 19.7853 65.6985 20.8547 65.6985 22.2553V31H62.4619V15.3561H65.6985V17.1448C66.2285 16.5013 66.9005 15.9997 67.7144 15.6401C68.5472 15.2804 69.4273 15.1006 70.3548 15.1006ZM82.5466 13.2835C81.9598 13.2835 81.4677 13.0848 81.0702 12.6873C80.6728 12.2898 80.474 11.7977 80.474 11.2109C80.474 10.6242 80.6728 10.1321 81.0702 9.73457C81.4677 9.33708 81.9598 9.13834 82.5466 9.13834C83.1144 9.13834 83.5971 9.33708 83.9946 9.73457C84.3921 10.1321 84.5908 10.6242 84.5908 11.2109C84.5908 11.7977 84.3921 12.2898 83.9946 12.6873C83.5971 13.0848 83.1144 13.2835 82.5466 13.2835ZM84.1366 34.0663C84.1366 35.5995 83.7485 36.7067 82.9725 37.3881C82.2154 38.0885 81.1081 38.4386 79.6507 38.4386H77.9755V35.713H79.0828C79.7453 35.713 80.209 35.5805 80.474 35.3155C80.7579 35.0695 80.8999 34.6531 80.8999 34.0663V15.3561H84.1366V34.0663Z" fill="#044395"/>
<defs>
<linearGradient id="paint0_linear_3524_2658" x1="95.4844" y1="8" x2="95.4844" y2="39.0313" gradientUnits="userSpaceOnUse">
<stop offset="0.447321" stop-color="#05F1DB"/>
<stop offset="1" stop-color="#056CF2"/>
</linearGradient>
</defs>
</svg>
