<svg width="1146" height="390" viewBox="0 0 1146 390" fill="none" xmlns="http://www.w3.org/2000/svg">
<path d="M986.212 373.84C986.086 376.601 988.221 378.95 990.985 378.987C1015.1 379.304 1038.97 373.917 1060.64 363.235C1083.81 351.814 1103.71 334.713 1118.49 313.526C1133.27 292.338 1142.44 267.754 1145.15 242.065C1147.69 218.037 1144.5 193.773 1135.87 171.255C1134.88 168.674 1131.94 167.481 1129.39 168.554V168.554C1126.84 169.627 1125.66 172.559 1126.64 175.142C1134.62 196.101 1137.56 218.666 1135.2 241.014C1132.67 265.023 1124.09 287.999 1110.28 307.8C1096.47 327.602 1077.87 343.584 1056.22 354.258C1036.06 364.193 1013.87 369.227 991.444 368.983C988.681 368.953 986.339 371.079 986.212 373.84V373.84Z" fill="white"/>
<path d="M1008.26 314.39C984.813 314.39 962.331 305.077 945.754 288.501C929.178 271.925 919.865 249.442 919.865 226C919.865 202.557 929.178 180.075 945.754 163.498C962.331 146.922 984.813 137.609 1008.26 137.609L1008.26 167.219C992.666 167.219 977.715 173.412 966.692 184.436C955.668 195.459 949.476 210.41 949.476 226C949.476 241.589 955.668 256.54 966.692 267.564C977.715 278.587 992.666 284.78 1008.26 284.78L1008.26 314.39Z" fill="white"/>
<path d="M987.934 336.353C987.796 339.354 990.118 341.912 993.123 341.909C1009.32 341.892 1025.35 338.481 1040.18 331.874C1056.66 324.527 1071.21 313.431 1082.65 299.471C1094.09 285.51 1102.11 269.071 1106.08 251.462C1110.04 233.853 1109.84 215.561 1105.49 198.044C1101.13 180.527 1092.75 164.269 1081 150.565C1069.26 136.861 1054.47 126.089 1037.83 119.109C1021.18 112.128 1003.13 109.132 985.126 110.358C968.93 111.461 953.166 115.952 938.848 123.518C936.192 124.922 935.337 128.269 936.864 130.856V130.856C938.39 133.444 941.72 134.29 944.383 132.899C957.236 126.187 971.359 122.2 985.865 121.212C1002.18 120.101 1018.54 122.816 1033.62 129.142C1048.7 135.467 1062.1 145.227 1072.74 157.645C1083.39 170.063 1090.99 184.795 1094.93 200.668C1098.87 216.541 1099.06 233.116 1095.46 249.072C1091.87 265.028 1084.6 279.925 1074.24 292.575C1063.87 305.225 1050.69 315.279 1035.75 321.936C1022.47 327.854 1008.12 330.942 993.622 331.028C990.618 331.046 988.072 333.352 987.934 336.353V336.353Z" fill="white"/>
<path d="M987.085 354.834C986.946 357.86 989.288 360.438 992.317 360.453C1021.41 360.601 1049.83 351.304 1073.25 333.881C1098.14 315.364 1115.86 288.808 1123.41 258.716C1130.96 228.624 1127.87 196.847 1114.67 168.773C1102.24 142.356 1081.58 120.747 1055.86 107.145C1053.18 105.729 1049.9 106.896 1048.6 109.63V109.63C1047.29 112.363 1048.46 115.627 1051.13 117.053C1074.57 129.557 1093.39 149.316 1104.74 173.442C1116.87 199.226 1119.71 228.41 1112.77 256.046C1105.84 283.683 1089.56 308.072 1066.7 325.078C1045.31 340.991 1019.38 349.523 992.82 349.484C989.791 349.48 987.224 351.808 987.085 354.834V354.834Z" fill="white"/>
<path d="M61.0892 77.7104V312H25.7398V77.7104H61.0892ZM144.029 207.668V312H109.823V136.283H142.656V164.883H144.829C148.871 155.578 155.202 148.104 163.82 142.46C172.514 136.817 183.458 133.995 196.652 133.995C208.626 133.995 219.113 136.512 228.112 141.545C237.111 146.502 244.09 153.9 249.047 163.739C254.004 173.577 256.483 185.741 256.483 200.232V312H222.278V204.35C222.278 191.614 218.96 181.661 212.325 174.492C205.69 167.247 196.576 163.624 184.983 163.624C177.052 163.624 169.997 165.34 163.82 168.772C157.718 172.204 152.875 177.238 149.291 183.873C145.783 190.432 144.029 198.363 144.029 207.668ZM434.031 179.183L403.028 184.674C401.732 180.708 399.673 176.933 396.851 173.348C394.105 169.764 390.368 166.827 385.64 164.539C380.911 162.251 375.001 161.107 367.908 161.107C358.222 161.107 350.138 163.281 343.655 167.628C337.173 171.899 333.931 177.428 333.931 184.216C333.931 190.089 336.105 194.817 340.452 198.402C344.799 201.986 351.816 204.922 361.501 207.21L389.415 213.617C405.583 217.354 417.633 223.112 425.565 230.891C433.497 238.67 437.463 248.775 437.463 261.207C437.463 271.731 434.412 281.112 428.311 289.349C422.286 297.509 413.858 303.916 403.028 308.568C392.275 313.22 379.805 315.546 365.62 315.546C345.943 315.546 329.889 311.352 317.458 302.962C305.026 294.497 297.4 282.485 294.578 266.927L327.639 261.893C329.698 270.511 333.931 277.032 340.338 281.455C346.744 285.803 355.095 287.976 365.391 287.976C376.602 287.976 385.563 285.65 392.275 280.998C398.986 276.269 402.342 270.511 402.342 263.724C402.342 258.232 400.283 253.618 396.164 249.881C392.122 246.144 385.907 243.322 377.517 241.416L347.774 234.895C331.376 231.158 319.25 225.209 311.395 217.049C303.615 208.888 299.726 198.554 299.726 186.046C299.726 175.674 302.624 166.599 308.42 158.819C314.216 151.04 322.224 144.977 332.444 140.63C342.664 136.207 354.371 133.995 367.565 133.995C386.555 133.995 401.503 138.113 412.409 146.35C423.315 154.51 430.522 165.455 434.031 179.183ZM526.208 315.89C515.073 315.89 505.006 313.83 496.006 309.712C487.007 305.517 479.876 299.454 474.614 291.523C469.428 283.591 466.835 273.867 466.835 262.351C466.835 252.436 468.741 244.276 472.554 237.869C476.368 231.463 481.516 226.391 487.998 222.654C494.481 218.917 501.726 216.095 509.734 214.189C517.742 212.282 525.903 210.833 534.216 209.842C544.74 208.621 553.282 207.63 559.841 206.867C566.4 206.028 571.167 204.694 574.141 202.863C577.115 201.033 578.603 198.058 578.603 193.94V193.139C578.603 183.148 575.781 175.407 570.137 169.916C564.57 164.425 556.257 161.679 545.198 161.679C533.682 161.679 524.606 164.234 517.971 169.344C511.412 174.378 506.874 179.983 504.357 186.161L472.211 178.839C476.025 168.162 481.592 159.544 488.914 152.985C496.311 146.35 504.815 141.545 514.425 138.571C524.034 135.52 534.139 133.995 544.74 133.995C551.757 133.995 559.193 134.834 567.048 136.512C574.98 138.113 582.378 141.088 589.242 145.435C596.182 149.782 601.864 155.998 606.287 164.082C610.711 172.09 612.922 182.5 612.922 195.313V312H579.518V287.976H578.145C575.933 292.4 572.616 296.747 568.192 301.018C563.769 305.289 558.087 308.835 551.147 311.657C544.207 314.479 535.894 315.89 526.208 315.89ZM533.644 288.434C543.101 288.434 551.185 286.565 557.896 282.828C564.684 279.091 569.832 274.21 573.34 268.185C576.925 262.084 578.717 255.563 578.717 248.623V225.972C577.497 227.192 575.132 228.336 571.624 229.404C568.192 230.395 564.265 231.272 559.841 232.035C555.418 232.721 551.109 233.37 546.914 233.98C542.719 234.514 539.211 234.971 536.389 235.353C529.754 236.191 523.691 237.602 518.2 239.585C512.785 241.568 508.438 244.428 505.158 248.165C501.955 251.826 500.353 256.707 500.353 262.808C500.353 271.274 503.48 277.68 509.734 282.027C515.988 286.298 523.958 288.434 533.644 288.434ZM692.687 207.668V312H658.482V136.283H691.314V164.883H693.488C697.53 155.578 703.86 148.104 712.478 142.46C721.173 136.817 732.117 133.995 745.311 133.995C757.285 133.995 767.771 136.512 776.771 141.545C785.77 146.502 792.748 153.9 797.706 163.739C802.663 173.577 805.142 185.741 805.142 200.232V312H770.936V204.35C770.936 191.614 767.619 181.661 760.983 174.492C754.348 167.247 745.235 163.624 733.642 163.624C725.71 163.624 718.656 165.34 712.478 168.772C706.377 172.204 701.534 177.238 697.95 183.873C694.441 190.432 692.687 198.363 692.687 207.668ZM851.016 136.283H885.221V323.44C885.221 335.185 883.086 345.1 878.815 353.184C874.62 361.268 868.366 367.407 860.053 371.602C851.816 375.797 841.635 377.894 829.509 377.894C828.288 377.894 827.144 377.894 826.077 377.894C824.933 377.894 823.75 377.856 822.53 377.78V348.379C823.598 348.379 824.551 348.379 825.39 348.379C826.153 348.379 827.03 348.379 828.021 348.379C836.106 348.379 841.94 346.205 845.524 341.858C849.185 337.587 851.016 331.372 851.016 323.211V136.283ZM867.947 109.17C861.998 109.17 856.888 107.187 852.617 103.221C848.423 99.1794 846.325 94.3746 846.325 88.8072C846.325 83.1635 848.423 78.3587 852.617 74.3929C856.888 70.3508 861.998 68.3297 867.947 68.3297C873.895 68.3297 878.967 70.3508 883.162 74.3929C887.433 78.3587 889.568 83.1635 889.568 88.8072C889.568 94.3746 887.433 99.1794 883.162 103.221C878.967 107.187 873.895 109.17 867.947 109.17Z" fill="white"/>
</svg>
